<mxfile host="app.diagrams.net" modified="2022-01-04T01:49:14.727Z" agent="5.0 (X11; Linux x86_64) AppleWebKit/537.36 (KHTML, like Gecko) Chrome/91.0.4472.101 Safari/537.36" etag="sCshUiNR_PbPFXhA956i" version="16.1.2" type="github">
  <diagram id="C5RBs43oDa-KdzZeNtuy" name="Page-1">
    <mxGraphModel dx="906" dy="1957" grid="1" gridSize="10" guides="1" tooltips="1" connect="1" arrows="1" fold="1" page="1" pageScale="1" pageWidth="827" pageHeight="1169" math="0" shadow="0">
      <root>
        <mxCell id="WIyWlLk6GJQsqaUBKTNV-0" />
        <mxCell id="WIyWlLk6GJQsqaUBKTNV-1" parent="WIyWlLk6GJQsqaUBKTNV-0" />
        <mxCell id="VcxjfQag7KBVopesu_Jw-0" value="&lt;div style=&quot;background-color: rgb(255 , 255 , 255) ; font-family: &amp;#34;droid sans mono&amp;#34; , monospace , monospace , &amp;#34;droid sans fallback&amp;#34; ; font-size: 14px ; line-height: 19px&quot;&gt;&lt;div&gt;&lt;span style=&quot;color: #0000ff&quot;&gt;typedef&lt;/span&gt; &lt;span style=&quot;color: #0000ff&quot;&gt;struct&lt;/span&gt; &lt;span style=&quot;color: #267f99&quot;&gt;Proto&lt;/span&gt; {&lt;/div&gt;&lt;/div&gt;&lt;blockquote style=&quot;margin: 0 0 0 40px ; border: none ; padding: 0px&quot;&gt;&lt;div style=&quot;background-color: rgb(255 , 255 , 255) ; font-family: &amp;#34;droid sans mono&amp;#34; , monospace , monospace , &amp;#34;droid sans fallback&amp;#34; ; font-size: 14px ; line-height: 19px&quot;&gt;&lt;div&gt;&lt;span style=&quot;color: #0000ff&quot;&gt;CommonHeader&lt;/span&gt;;&lt;/div&gt;&lt;/div&gt;&lt;div style=&quot;background-color: rgb(255 , 255 , 255) ; font-family: &amp;#34;droid sans mono&amp;#34; , monospace , monospace , &amp;#34;droid sans fallback&amp;#34; ; font-size: 14px ; line-height: 19px&quot;&gt;&lt;div&gt;&lt;span style=&quot;color: #267f99&quot;&gt;TValue&lt;/span&gt; *&lt;span style=&quot;color: #001080&quot;&gt;k&lt;/span&gt;;&lt;span style=&quot;color: #008000&quot;&gt;  /* constants used by the function */&lt;/span&gt;&lt;/div&gt;&lt;/div&gt;&lt;div style=&quot;background-color: rgb(255 , 255 , 255) ; font-family: &amp;#34;droid sans mono&amp;#34; , monospace , monospace , &amp;#34;droid sans fallback&amp;#34; ; font-size: 14px ; line-height: 19px&quot;&gt;&lt;div&gt;&lt;span style=&quot;color: #267f99&quot;&gt;Instruction&lt;/span&gt; *&lt;span style=&quot;color: #001080&quot;&gt;code&lt;/span&gt;;&lt;/div&gt;&lt;/div&gt;&lt;div style=&quot;background-color: rgb(255 , 255 , 255) ; font-family: &amp;#34;droid sans mono&amp;#34; , monospace , monospace , &amp;#34;droid sans fallback&amp;#34; ; font-size: 14px ; line-height: 19px&quot;&gt;&lt;div&gt;&lt;span style=&quot;color: #0000ff&quot;&gt;struct&lt;/span&gt; &lt;span style=&quot;color: #267f99&quot;&gt;Proto&lt;/span&gt; &lt;span style=&quot;color: #0000ff&quot;&gt;**&lt;/span&gt;&lt;span style=&quot;color: #001080&quot;&gt;p&lt;/span&gt;;&lt;span style=&quot;color: #008000&quot;&gt;  /* functions defined inside the function */&lt;/span&gt;&lt;/div&gt;&lt;/div&gt;&lt;div style=&quot;background-color: rgb(255 , 255 , 255) ; font-family: &amp;#34;droid sans mono&amp;#34; , monospace , monospace , &amp;#34;droid sans fallback&amp;#34; ; font-size: 14px ; line-height: 19px&quot;&gt;&lt;div&gt;&lt;span style=&quot;color: #0000ff&quot;&gt;int&lt;/span&gt; *&lt;span style=&quot;color: #001080&quot;&gt;lineinfo&lt;/span&gt;;&lt;span style=&quot;color: #008000&quot;&gt;  /* map from opcodes to source lines */&lt;/span&gt;&lt;/div&gt;&lt;/div&gt;&lt;div style=&quot;background-color: rgb(255 , 255 , 255) ; font-family: &amp;#34;droid sans mono&amp;#34; , monospace , monospace , &amp;#34;droid sans fallback&amp;#34; ; font-size: 14px ; line-height: 19px&quot;&gt;&lt;div&gt;&lt;span style=&quot;color: #0000ff&quot;&gt;struct&lt;/span&gt; &lt;span style=&quot;color: #267f99&quot;&gt;LocVar&lt;/span&gt; &lt;span style=&quot;color: #0000ff&quot;&gt;*&lt;/span&gt;&lt;span style=&quot;color: #001080&quot;&gt;locvars&lt;/span&gt;;&lt;span style=&quot;color: #008000&quot;&gt;  /* information about local variables */&lt;/span&gt;&lt;/div&gt;&lt;/div&gt;&lt;div style=&quot;background-color: rgb(255 , 255 , 255) ; font-family: &amp;#34;droid sans mono&amp;#34; , monospace , monospace , &amp;#34;droid sans fallback&amp;#34; ; font-size: 14px ; line-height: 19px&quot;&gt;&lt;div&gt;&lt;span style=&quot;color: #267f99&quot;&gt;TString&lt;/span&gt; **&lt;span style=&quot;color: #001080&quot;&gt;upvalues&lt;/span&gt;;&lt;span style=&quot;color: #008000&quot;&gt;  /* upvalue names */&lt;/span&gt;&lt;/div&gt;&lt;/div&gt;&lt;div style=&quot;background-color: rgb(255 , 255 , 255) ; font-family: &amp;#34;droid sans mono&amp;#34; , monospace , monospace , &amp;#34;droid sans fallback&amp;#34; ; font-size: 14px ; line-height: 19px&quot;&gt;&lt;div&gt;&lt;span style=&quot;color: #267f99&quot;&gt;TString&lt;/span&gt;  *&lt;span style=&quot;color: #001080&quot;&gt;source&lt;/span&gt;;&lt;/div&gt;&lt;/div&gt;&lt;div style=&quot;background-color: rgb(255 , 255 , 255) ; font-family: &amp;#34;droid sans mono&amp;#34; , monospace , monospace , &amp;#34;droid sans fallback&amp;#34; ; font-size: 14px ; line-height: 19px&quot;&gt;&lt;div&gt;&lt;span style=&quot;color: #0000ff&quot;&gt;int&lt;/span&gt; &lt;span style=&quot;color: #001080&quot;&gt;sizeupvalues&lt;/span&gt;;&lt;/div&gt;&lt;/div&gt;&lt;div style=&quot;background-color: rgb(255 , 255 , 255) ; font-family: &amp;#34;droid sans mono&amp;#34; , monospace , monospace , &amp;#34;droid sans fallback&amp;#34; ; font-size: 14px ; line-height: 19px&quot;&gt;&lt;div&gt;&lt;span style=&quot;color: #0000ff&quot;&gt;int&lt;/span&gt; &lt;span style=&quot;color: #001080&quot;&gt;sizek&lt;/span&gt;;&lt;span style=&quot;color: #008000&quot;&gt;  /* size of `k&#39; */&lt;/span&gt;&lt;/div&gt;&lt;/div&gt;&lt;div style=&quot;background-color: rgb(255 , 255 , 255) ; font-family: &amp;#34;droid sans mono&amp;#34; , monospace , monospace , &amp;#34;droid sans fallback&amp;#34; ; font-size: 14px ; line-height: 19px&quot;&gt;&lt;div&gt;&lt;span style=&quot;color: #0000ff&quot;&gt;int&lt;/span&gt; &lt;span style=&quot;color: #001080&quot;&gt;sizecode&lt;/span&gt;;&lt;/div&gt;&lt;/div&gt;&lt;div style=&quot;background-color: rgb(255 , 255 , 255) ; font-family: &amp;#34;droid sans mono&amp;#34; , monospace , monospace , &amp;#34;droid sans fallback&amp;#34; ; font-size: 14px ; line-height: 19px&quot;&gt;&lt;div&gt;&lt;span style=&quot;color: #0000ff&quot;&gt;int&lt;/span&gt; &lt;span style=&quot;color: #001080&quot;&gt;sizelineinfo&lt;/span&gt;;&lt;/div&gt;&lt;/div&gt;&lt;div style=&quot;background-color: rgb(255 , 255 , 255) ; font-family: &amp;#34;droid sans mono&amp;#34; , monospace , monospace , &amp;#34;droid sans fallback&amp;#34; ; font-size: 14px ; line-height: 19px&quot;&gt;&lt;div&gt;&lt;span style=&quot;color: #0000ff&quot;&gt;int&lt;/span&gt; &lt;span style=&quot;color: #001080&quot;&gt;sizep&lt;/span&gt;;&lt;span style=&quot;color: #008000&quot;&gt;  /* size of `p&#39; */&lt;/span&gt;&lt;/div&gt;&lt;/div&gt;&lt;div style=&quot;background-color: rgb(255 , 255 , 255) ; font-family: &amp;#34;droid sans mono&amp;#34; , monospace , monospace , &amp;#34;droid sans fallback&amp;#34; ; font-size: 14px ; line-height: 19px&quot;&gt;&lt;div&gt;&lt;span style=&quot;color: #0000ff&quot;&gt;int&lt;/span&gt; &lt;span style=&quot;color: #001080&quot;&gt;sizelocvars&lt;/span&gt;;&lt;/div&gt;&lt;/div&gt;&lt;div style=&quot;background-color: rgb(255 , 255 , 255) ; font-family: &amp;#34;droid sans mono&amp;#34; , monospace , monospace , &amp;#34;droid sans fallback&amp;#34; ; font-size: 14px ; line-height: 19px&quot;&gt;&lt;div&gt;&lt;span style=&quot;color: #0000ff&quot;&gt;int&lt;/span&gt; &lt;span style=&quot;color: #001080&quot;&gt;linedefined&lt;/span&gt;;&lt;/div&gt;&lt;/div&gt;&lt;div style=&quot;background-color: rgb(255 , 255 , 255) ; font-family: &amp;#34;droid sans mono&amp;#34; , monospace , monospace , &amp;#34;droid sans fallback&amp;#34; ; font-size: 14px ; line-height: 19px&quot;&gt;&lt;div&gt;&lt;span style=&quot;color: #0000ff&quot;&gt;int&lt;/span&gt; &lt;span style=&quot;color: #001080&quot;&gt;lastlinedefined&lt;/span&gt;;&lt;/div&gt;&lt;/div&gt;&lt;div style=&quot;background-color: rgb(255 , 255 , 255) ; font-family: &amp;#34;droid sans mono&amp;#34; , monospace , monospace , &amp;#34;droid sans fallback&amp;#34; ; font-size: 14px ; line-height: 19px&quot;&gt;&lt;div&gt;&lt;span style=&quot;color: #267f99&quot;&gt;GCObject&lt;/span&gt; *&lt;span style=&quot;color: #001080&quot;&gt;gclist&lt;/span&gt;;&lt;/div&gt;&lt;/div&gt;&lt;div style=&quot;background-color: rgb(255 , 255 , 255) ; font-family: &amp;#34;droid sans mono&amp;#34; , monospace , monospace , &amp;#34;droid sans fallback&amp;#34; ; font-size: 14px ; line-height: 19px&quot;&gt;&lt;div&gt;&lt;span style=&quot;color: #267f99&quot;&gt;lu_byte&lt;/span&gt; &lt;span style=&quot;color: #001080&quot;&gt;nups&lt;/span&gt;;&lt;span style=&quot;color: #008000&quot;&gt;  /* number of upvalues */&lt;/span&gt;&lt;/div&gt;&lt;/div&gt;&lt;div style=&quot;background-color: rgb(255 , 255 , 255) ; font-family: &amp;#34;droid sans mono&amp;#34; , monospace , monospace , &amp;#34;droid sans fallback&amp;#34; ; font-size: 14px ; line-height: 19px&quot;&gt;&lt;div&gt;&lt;span style=&quot;color: #267f99&quot;&gt;lu_byte&lt;/span&gt; &lt;span style=&quot;color: #001080&quot;&gt;numparams&lt;/span&gt;;&lt;/div&gt;&lt;/div&gt;&lt;div style=&quot;background-color: rgb(255 , 255 , 255) ; font-family: &amp;#34;droid sans mono&amp;#34; , monospace , monospace , &amp;#34;droid sans fallback&amp;#34; ; font-size: 14px ; line-height: 19px&quot;&gt;&lt;div&gt;&lt;span style=&quot;color: #267f99&quot;&gt;lu_byte&lt;/span&gt; &lt;span style=&quot;color: #001080&quot;&gt;is_vararg&lt;/span&gt;;&lt;/div&gt;&lt;/div&gt;&lt;div style=&quot;background-color: rgb(255 , 255 , 255) ; font-family: &amp;#34;droid sans mono&amp;#34; , monospace , monospace , &amp;#34;droid sans fallback&amp;#34; ; font-size: 14px ; line-height: 19px&quot;&gt;&lt;div&gt;&lt;span style=&quot;color: #267f99&quot;&gt;lu_byte&lt;/span&gt; &lt;span style=&quot;color: #001080&quot;&gt;maxstacksize&lt;/span&gt;;&lt;/div&gt;&lt;/div&gt;&lt;/blockquote&gt;&lt;div style=&quot;background-color: rgb(255 , 255 , 255) ; font-family: &amp;#34;droid sans mono&amp;#34; , monospace , monospace , &amp;#34;droid sans fallback&amp;#34; ; font-size: 14px ; line-height: 19px&quot;&gt;&lt;div&gt;} &lt;span style=&quot;color: #267f99&quot;&gt;Proto&lt;/span&gt;;&lt;/div&gt;&lt;/div&gt;" style="text;html=1;strokeColor=none;fillColor=none;align=left;verticalAlign=middle;whiteSpace=wrap;rounded=0;" parent="WIyWlLk6GJQsqaUBKTNV-1" vertex="1">
          <mxGeometry x="1070" y="110" width="520" height="490" as="geometry" />
        </mxCell>
        <mxCell id="2lAvKOUMsd0BDo9AGA82-0" value="" style="rounded=0;whiteSpace=wrap;html=1;dashed=1;fontSize=12;" vertex="1" parent="WIyWlLk6GJQsqaUBKTNV-1">
          <mxGeometry x="137" y="400" width="690" height="340" as="geometry" />
        </mxCell>
        <mxCell id="2lAvKOUMsd0BDo9AGA82-1" value="" style="rounded=0;whiteSpace=wrap;html=1;dashed=1;fontSize=12;" vertex="1" parent="WIyWlLk6GJQsqaUBKTNV-1">
          <mxGeometry x="137" y="-10" width="690" height="350" as="geometry" />
        </mxCell>
        <mxCell id="2lAvKOUMsd0BDo9AGA82-2" value="" style="edgeStyle=orthogonalEdgeStyle;rounded=0;orthogonalLoop=1;jettySize=auto;html=1;" edge="1" parent="WIyWlLk6GJQsqaUBKTNV-1" source="2lAvKOUMsd0BDo9AGA82-3" target="2lAvKOUMsd0BDo9AGA82-7">
          <mxGeometry relative="1" as="geometry" />
        </mxCell>
        <mxCell id="2lAvKOUMsd0BDo9AGA82-3" value="lparser.c" style="rounded=1;whiteSpace=wrap;html=1;fontSize=12;glass=0;strokeWidth=1;shadow=0;" vertex="1" parent="WIyWlLk6GJQsqaUBKTNV-1">
          <mxGeometry x="206" y="147" width="120" height="40" as="geometry" />
        </mxCell>
        <mxCell id="2lAvKOUMsd0BDo9AGA82-4" value="" style="edgeStyle=orthogonalEdgeStyle;rounded=0;orthogonalLoop=1;jettySize=auto;html=1;" edge="1" parent="WIyWlLk6GJQsqaUBKTNV-1" source="2lAvKOUMsd0BDo9AGA82-5" target="2lAvKOUMsd0BDo9AGA82-3">
          <mxGeometry relative="1" as="geometry" />
        </mxCell>
        <mxCell id="2lAvKOUMsd0BDo9AGA82-5" value="llex.c" style="rounded=1;whiteSpace=wrap;html=1;fontSize=12;glass=0;strokeWidth=1;shadow=0;" vertex="1" parent="WIyWlLk6GJQsqaUBKTNV-1">
          <mxGeometry x="206" y="26" width="120" height="40" as="geometry" />
        </mxCell>
        <mxCell id="2lAvKOUMsd0BDo9AGA82-6" value="" style="edgeStyle=orthogonalEdgeStyle;rounded=0;orthogonalLoop=1;jettySize=auto;html=1;" edge="1" parent="WIyWlLk6GJQsqaUBKTNV-1" source="2lAvKOUMsd0BDo9AGA82-7" target="2lAvKOUMsd0BDo9AGA82-9">
          <mxGeometry relative="1" as="geometry" />
        </mxCell>
        <mxCell id="2lAvKOUMsd0BDo9AGA82-7" value="lcode.c" style="rounded=1;whiteSpace=wrap;html=1;fontSize=12;glass=0;strokeWidth=1;shadow=0;" vertex="1" parent="WIyWlLk6GJQsqaUBKTNV-1">
          <mxGeometry x="206" y="263" width="120" height="40" as="geometry" />
        </mxCell>
        <mxCell id="2lAvKOUMsd0BDo9AGA82-9" value="lvm.c" style="rounded=1;whiteSpace=wrap;html=1;fontSize=12;glass=0;strokeWidth=1;shadow=0;" vertex="1" parent="WIyWlLk6GJQsqaUBKTNV-1">
          <mxGeometry x="206" y="434" width="120" height="40" as="geometry" />
        </mxCell>
      </root>
    </mxGraphModel>
  </diagram>
</mxfile>
